<?xml version="1.0" encoding="utf-8"?>
<!-- Generator: Adobe Illustrator 22.1.0, SVG Export Plug-In . SVG Version: 6.00 Build 0)  -->
<svg version="1.1" id="Layer_1" xmlns="http://www.w3.org/2000/svg" xmlns:xlink="http://www.w3.org/1999/xlink" x="0px" y="0px"
	 viewBox="0 0 96 96" style="enable-background:new 0 0 96 96;" xml:space="preserve">
<style type="text/css">
	.st0{fill:#FFFFFF;}
</style>
<g>
	<path class="st0" d="M84.4,27.8c-3.8-6.4-8.9-11.5-15.3-15.3c-6.4-3.8-13.5-5.6-21.1-5.6c-7.6,0-14.6,1.9-21.1,5.6
		c-6.4,3.8-11.5,8.8-15.3,15.3c-3.8,6.4-5.6,13.5-5.6,21.1c0,9.2,2.7,17.4,8,24.7c5.3,7.3,12.2,12.4,20.7,15.2
		c1,0.2,1.7,0.1,2.2-0.4c0.5-0.4,0.7-1,0.7-1.6c0-0.1,0-1.1,0-3c0-1.9,0-3.5,0-4.9l-1.3,0.2c-0.8,0.1-1.8,0.2-3,0.2
		c-1.2,0-2.5-0.1-3.8-0.4c-1.3-0.2-2.5-0.8-3.7-1.6c-1.1-0.9-1.9-2-2.4-3.4l-0.5-1.3c-0.4-0.8-0.9-1.8-1.7-2.8
		c-0.8-1-1.6-1.7-2.4-2.1l-0.4-0.3c-0.3-0.2-0.5-0.4-0.7-0.7c-0.2-0.3-0.4-0.5-0.5-0.8c-0.1-0.3,0-0.5,0.3-0.6
		c0.3-0.2,0.8-0.2,1.6-0.2l1.1,0.2c0.7,0.1,1.6,0.6,2.7,1.3c1.1,0.7,2,1.7,2.7,2.8c0.8,1.5,1.8,2.6,3,3.4c1.2,0.8,2.4,1.2,3.6,1.2
		c1.2,0,2.2-0.1,3.1-0.3c0.9-0.2,1.7-0.5,2.5-0.8c0.3-2.4,1.2-4.3,2.7-5.6c-2.1-0.2-3.9-0.5-5.6-1c-1.7-0.4-3.4-1.1-5.1-2.1
		c-1.8-1-3.2-2.2-4.4-3.7c-1.2-1.5-2.1-3.4-2.9-5.7c-0.7-2.4-1.1-5.1-1.1-8.2c0-4.4,1.4-8.2,4.3-11.3c-1.4-3.3-1.2-7,0.4-11.2
		c1.1-0.3,2.6-0.1,4.7,0.7c2.1,0.8,3.6,1.5,4.6,2.1c1,0.6,1.7,1.1,2.3,1.5c3.4-0.9,6.9-1.4,10.5-1.4c3.6,0,7.1,0.5,10.5,1.4l2.1-1.3
		c1.4-0.9,3.1-1.7,5-2.4c1.9-0.7,3.4-0.9,4.4-0.6c1.6,4.1,1.8,7.8,0.4,11.2c2.9,3.1,4.3,6.9,4.3,11.3c0,3.1-0.4,5.8-1.1,8.2
		c-0.7,2.4-1.7,4.3-2.9,5.7c-1.2,1.4-2.7,2.7-4.4,3.6c-1.8,1-3.5,1.7-5.1,2.1c-1.7,0.4-3.5,0.8-5.6,1c1.9,1.6,2.8,4.2,2.8,7.8v11.5
		c0,0.7,0.2,1.2,0.7,1.6c0.5,0.4,1.2,0.6,2.2,0.4c8.5-2.8,15.4-7.9,20.7-15.2c5.3-7.3,8-15.5,8-24.7C90.1,41.2,88.2,34.2,84.4,27.8
		L84.4,27.8z M84.4,27.8"/>
</g>
</svg>
