<?xml version="1.0" encoding="utf-8"?>
<!-- Generator: Adobe Illustrator 22.1.0, SVG Export Plug-In . SVG Version: 6.00 Build 0)  -->
<svg version="1.1" id="Layer_1" xmlns="http://www.w3.org/2000/svg" xmlns:xlink="http://www.w3.org/1999/xlink" x="0px" y="0px"
	 viewBox="0 0 96 96" style="enable-background:new 0 0 96 96;" xml:space="preserve">
<style type="text/css">
	.st0{fill:#FFFFFF;}
</style>
<path class="st0" d="M32.5,86.7c-10.4,0-17.8-6.6-17.8-14.4c0-7.7,9.3-14.2,19.6-14c2.4,0,4.7,0.4,6.7,1.1
	c5.6,3.9,9.7,6.1,10.8,10.6c0.2,0.9,0.3,1.8,0.3,2.8C52.1,80.5,47,86.7,32.5,86.7 M35.2,40.5c-7-0.2-13.6-7.8-14.8-16.9
	c-1.2-9.1,3.5-16.1,10.4-15.9c7,0.2,13.6,7.5,14.8,16.7C46.8,33.4,42.1,40.7,35.2,40.5 M49.6,54c-2.4-1.7-7.1-5.9-7.1-8.4
	c0-2.9,0.8-4.3,5.2-7.7c4.5-3.5,7.6-8.4,7.6-14.1c0-6.8-3-13.4-8.7-15.6h8.6l6-4.4h-27c-12.1,0-23.5,9.2-23.5,19.8
	c0,10.9,8.2,19.6,20.6,19.6c0.9,0,1.7,0,2.5-0.1c-0.8,1.5-1.4,3.3-1.4,5c0,3,1.6,5.5,3.7,7.5c-1.6,0-3.1,0-4.7,0
	c-15,0-26.5,9.5-26.5,19.4c0,9.9,12.6,16,27.6,16C49.6,91,59,81.3,59,71.5C59,63.7,56.7,59,49.6,54 M88.9,41.3H78.4V30.7h-8.5v10.5
	H59.4v8.5h10.5v10.5h8.5V49.7h10.5V41.3z"/>
</svg>
