<?xml version="1.0" standalone="no"?>
<!DOCTYPE svg PUBLIC "-//W3C//DTD SVG 20010904//EN"
 "http://www.w3.org/TR/2001/REC-SVG-20010904/DTD/svg10.dtd">
<svg version="1.0" xmlns="http://www.w3.org/2000/svg"
 width="260.000000pt" height="260.000000pt" viewBox="0 0 260.000000 260.000000"
 preserveAspectRatio="xMidYMid meet">
<metadata>
Created by potrace 1.11, written by Peter Selinger 2001-2013
</metadata>
<g transform="translate(0.000000,260.000000) scale(0.100000,-0.100000)"
fill="#000000" stroke="none">
<path d="M1025 2570 c-16 -6 -47 -13 -69 -15 -21 -2 -49 -11 -62 -20 -13 -8
-45 -20 -72 -25 -32 -7 -62 -24 -92 -51 -25 -21 -94 -75 -155 -119 -178 -130
-208 -155 -241 -201 -67 -95 -138 -265 -190 -454 -31 -111 -42 -299 -24 -377
10 -39 10 -53 1 -56 -15 -5 -14 -27 3 -41 7 -6 16 -39 19 -74 16 -162 146
-415 283 -553 136 -135 380 -267 549 -295 33 -6 71 -12 85 -14 29 -5 168 -14
220 -15 21 0 30 -3 23 -8 -8 -5 -10 -18 -7 -32 3 -14 6 -35 5 -48 0 -12 6 -25
14 -29 10 -3 13 -12 10 -24 -5 -14 1 -22 19 -31 14 -6 26 -18 26 -25 0 -9 6
-12 19 -8 13 4 20 0 24 -16 5 -19 8 -21 22 -9 15 12 18 12 26 -3 8 -14 13 -14
29 -5 14 9 22 9 33 0 12 -10 16 -9 20 3 4 8 14 14 24 13 40 -3 54 2 51 20 -2
11 3 16 15 14 10 -2 17 3 17 13 0 10 9 19 20 22 11 3 20 14 20 24 0 11 5 19
10 19 6 0 8 11 4 26 -4 15 -1 36 7 51 12 22 11 27 -5 39 -12 8 -17 21 -13 34
3 13 0 20 -9 20 -25 0 -15 19 14 26 29 7 92 40 182 94 73 44 262 237 318 325
79 122 140 265 157 365 3 19 12 58 20 85 8 28 15 59 15 70 0 11 2 74 3 140 3
111 -4 227 -17 284 -19 85 -104 288 -139 336 -4 5 -32 43 -62 84 -31 40 -54
78 -53 85 3 16 -40 154 -62 196 -20 39 -49 66 -97 93 -32 18 -40 18 -188 2
-53 -6 -112 7 -205 45 -42 18 -70 23 -120 20 -121 -5 -225 -4 -310 3 -50 4
-97 2 -115 -3z m350 -116 c23 -12 57 -20 80 -19 30 1 55 -8 100 -36 33 -20 95
-52 139 -71 64 -27 89 -45 135 -94 34 -37 70 -66 91 -73 49 -16 131 -90 180
-164 38 -56 41 -66 35 -102 -4 -22 -7 -51 -6 -65 1 -26 47 -80 68 -80 14 0 44
-60 45 -89 0 -9 -3 -35 -7 -58 -6 -36 -2 -50 24 -96 36 -63 39 -111 15 -202
-19 -74 -22 -91 -25 -185 -1 -41 -6 -86 -11 -100 -6 -16 -6 -26 1 -28 7 -2 7
-12 0 -29 -8 -23 -7 -25 11 -20 26 7 26 2 -14 -68 -29 -52 -37 -60 -60 -57
-18 2 -26 -2 -26 -12 0 -20 -51 -104 -68 -111 -7 -2 -22 5 -35 18 -26 26 -36
28 -59 9 -13 -11 -18 -30 -18 -73 0 -70 13 -78 60 -35 24 21 21 16 -10 -17
-87 -93 -269 -199 -337 -196 l-28 1 30 7 c34 7 45 36 17 45 -10 4 -47 -3 -81
-14 -35 -11 -68 -17 -74 -13 -17 10 -81 7 -104 -5 -15 -8 -24 -9 -28 -2 -9 15
-25 2 -18 -15 3 -10 -2 -15 -17 -15 -11 0 -19 -4 -16 -9 11 -17 -30 -24 -159
-27 -107 -2 -141 1 -190 16 -33 11 -78 22 -100 25 -22 3 -48 8 -57 11 -10 3
-18 1 -18 -5 0 -14 28 -28 73 -35 38 -6 82 -24 75 -31 -4 -4 -90 19 -145 39
-48 17 -179 91 -188 106 -4 6 5 5 19 -2 14 -6 26 -14 26 -18 0 -12 39 -19 46
-9 3 5 -6 14 -20 21 -14 6 -26 16 -26 23 0 6 -25 36 -55 66 -30 30 -55 61 -56
69 0 11 -2 11 -6 2 -5 -14 -75 40 -176 137 -93 89 -139 179 -187 366 -25 101
-27 121 -23 240 5 126 7 136 60 295 31 91 57 184 58 206 1 33 12 56 52 110 28
38 60 88 71 110 30 59 117 133 225 189 50 27 112 62 137 77 88 56 331 116 460
113 53 -1 87 -7 115 -21z m961 -762 c5 -15 9 -36 10 -47 1 -11 4 -32 7 -47 3
-16 1 -28 -7 -31 -9 -4 -17 19 -27 78 -11 62 -12 82 -3 78 7 -2 16 -16 20 -31z
m11 -514 c-3 -8 -6 -5 -6 6 -1 11 2 17 5 13 3 -3 4 -12 1 -19z m-10 -40 c-3
-8 -6 -5 -6 6 -1 11 2 17 5 13 3 -3 4 -12 1 -19z m-27 -90 c-31 -90 -40 -102
-35 -46 3 30 12 55 25 68 11 11 20 28 20 37 0 9 3 14 6 10 3 -3 -4 -34 -16
-69z m-130 -268 c0 -5 -5 -10 -11 -10 -5 0 -7 5 -4 10 3 6 8 10 11 10 2 0 4
-4 4 -10z"/>
<path d="M2360 860 c0 -6 -5 -8 -10 -5 -6 3 -13 -1 -16 -9 -3 -9 -15 -16 -26
-16 -14 0 -18 -5 -14 -15 3 -8 1 -15 -5 -15 -6 0 -8 -4 -4 -9 3 -5 1 -12 -4
-15 -13 -9 -7 -57 12 -94 10 -18 22 -30 27 -27 6 4 10 1 10 -5 0 -6 5 -8 10
-5 6 3 10 1 10 -4 0 -6 16 -11 35 -11 19 0 35 5 35 11 0 5 4 7 10 4 11 -7 60
38 60 55 0 5 4 10 9 10 6 0 6 12 0 32 -6 23 -5 34 4 40 9 6 9 8 -1 8 -7 0 -17
11 -24 25 -6 13 -15 22 -19 19 -5 -3 -9 0 -9 5 0 6 -7 11 -15 11 -8 0 -15 5
-15 12 0 9 -3 9 -12 0 -7 -7 -17 -8 -30 -1 -12 7 -18 6 -18 -1z"/>
</g>
</svg>
