<?xml version="1.0" encoding="utf-8"?>
<!-- Generator: Adobe Illustrator 22.1.0, SVG Export Plug-In . SVG Version: 6.00 Build 0)  -->
<svg version="1.1" id="Layer_1" xmlns="http://www.w3.org/2000/svg" xmlns:xlink="http://www.w3.org/1999/xlink" x="0px" y="0px"
	 viewBox="0 0 96 96" style="enable-background:new 0 0 96 96;" xml:space="preserve">
<style type="text/css">
	.st0{fill:#FFFFFF;}
</style>
<path class="st0" d="M88.9,21.6c-3.1,1.4-6.4,2.3-9.9,2.7c3.6-2.1,6.3-5.5,7.6-9.5c-3.3,2-7,3.4-10.9,4.2c-3.1-3.3-7.6-5.4-12.6-5.4
	c-9.5,0-17.2,7.7-17.2,17.2c0,1.4,0.1,2.7,0.4,3.9c-14.3-0.7-27-7.6-35.5-18c-1.5,2.6-2.3,5.5-2.3,8.7c0,6,3,11.2,7.7,14.3
	c-2.8-0.1-5.5-0.9-7.8-2.2v0.2c0,8.4,5.9,15.3,13.8,16.9c-1.4,0.4-3,0.6-4.5,0.6c-1.1,0-2.2-0.1-3.2-0.3c2.2,6.8,8.6,11.8,16.1,12
	c-5.9,4.6-13.3,7.4-21.4,7.4c-1.4,0-2.8-0.1-4.1-0.2c7.6,4.9,16.7,7.7,26.4,7.7c31.7,0,49-26.3,49-49c0-0.7,0-1.5,0-2.2
	C83.6,28.1,86.6,25,88.9,21.6"/>
</svg>
